<svg width="12" height="12" viewBox="0 0 12 12" fill="none" xmlns="http://www.w3.org/2000/svg">
<path d="M5.995 1C3.235 1 1 3.24 1 6C1 8.76 3.235 11 5.995 11C8.76 11 11 8.76 11 6C11 3.24 8.76 1 5.995 1ZM8 8C7.95374 8.04635 7.8988 8.08313 7.83831 8.10822C7.77783 8.13331 7.71298 8.14622 7.6475 8.14622C7.58202 8.14622 7.51717 8.13331 7.45669 8.10822C7.3962 8.08313 7.34126 8.04635 7.295 8L5.65 6.355C5.60276 6.30869 5.56517 6.25347 5.53942 6.19253C5.51367 6.13159 5.50027 6.06615 5.5 6V4C5.5 3.725 5.725 3.5 6 3.5C6.275 3.5 6.5 3.725 6.5 4V5.795L8 7.295C8.195 7.49 8.195 7.805 8 8Z" fill="#A3B9F3"/>
</svg>
