<svg width="12" height="12" viewBox="0 0 12 12" fill="none" xmlns="http://www.w3.org/2000/svg">
<path d="M6.63 4.36999C6.63 4.02205 6.34793 3.73999 6 3.73999C5.65206 3.73999 5.37 4.02205 5.37 4.36999C5.37 4.71793 5.65206 4.99999 6 4.99999C6.34793 4.99999 6.63 4.71793 6.63 4.36999Z" fill="#8E9091"/>
<path d="M6.5 6V8C6.5 8.275 6.275 8.5 6 8.5C5.725 8.5 5.5 8.275 5.5 8V6C5.5 5.725 5.725 5.5 6 5.5C6.275 5.5 6.5 5.725 6.5 6Z" fill="#8E9091"/>
<path d="M6 1C3.24 1 1 3.24 1 6C1 8.76 3.24 11 6 11C8.76 11 11 8.76 11 6C11 3.24 8.76 1 6 1ZM6 10C3.795 10 2 8.205 2 6C2 3.795 3.795 2 6 2C8.205 2 10 3.795 10 6C10 8.205 8.205 10 6 10Z" fill="#8E9091"/>
</svg>
