<svg width="25" height="24" viewBox="0 0 25 24" fill="none" xmlns="http://www.w3.org/2000/svg">
<path d="M4.99243 3.23201V17.4212C4.99243 17.8722 5.24346 18.2875 5.64661 18.5033L11.9005 21.85C12.2744 22.05 12.7263 22.05 13.1004 21.85L19.3546 18.5033C19.7577 18.2875 20.0087 17.8725 20.0087 17.4212V3.23201C20.0087 2.55163 19.4472 2 18.7545 2H12.5003H6.2467C5.55392 1.99972 4.99243 2.55135 4.99243 3.23201Z" fill="url(#paint0_linear_1574_213089)"/>
<path d="M20.0075 3.23787V3.35056C20.0075 2.67018 19.446 2.11855 18.7532 2.11855H6.24548C5.5527 2.11855 4.99121 2.67018 4.99121 3.35056V3.23787C4.99121 2.55749 5.5527 2.00586 6.24548 2.00586H18.7532C19.446 2.00586 20.0075 2.55749 20.0075 3.23787Z" fill="#E0E0E0"/>
<path d="M6.71313 3.67578V17.0073L12.5005 20.3233L18.2878 17.0073V3.67578H12.5005H6.71313Z" fill="url(#paint1_linear_1574_213089)"/>
<path d="M18.2878 16.9512V17.0357L12.5005 20.3517L6.71313 17.0357V16.9512L12.5005 20.2672L18.2878 16.9512Z" fill="#E0E0E0"/>
<defs>
<linearGradient id="paint0_linear_1574_213089" x1="8.14382" y1="0.982971" x2="17.7121" y2="21.5022" gradientUnits="userSpaceOnUse">
<stop stop-color="#B7B6AE"/>
<stop offset="1" stop-color="#665C57"/>
</linearGradient>
<linearGradient id="paint1_linear_1574_213089" x1="12.5005" y1="1.96706" x2="12.5005" y2="19.1923" gradientUnits="userSpaceOnUse">
<stop offset="0.00062561" stop-color="#9D9A90"/>
<stop offset="1" stop-color="#212121"/>
</linearGradient>
</defs>
</svg>