
<svg width="25" height="24" viewBox="0 0 25 24" fill="none" xmlns="http://www.w3.org/2000/svg">
<g opacity="0.4">
<path d="M4.99243 3.23201V17.4212C4.99243 17.8722 5.24345 18.2875 5.64661 18.5033L11.9005 21.85C12.2744 22.05 12.7262 22.05 13.1004 21.85L19.3546 18.5033C19.7577 18.2875 20.0087 17.8725 20.0087 17.4212V3.23201C20.0087 2.55163 19.4472 2 18.7545 2H12.5003H6.24642C5.55392 1.99972 4.99243 2.55135 4.99243 3.23201Z" fill="url(#paint0_linear_1574_213096)"/>
<path d="M20.0075 3.23787V3.35056C20.0075 2.67018 19.446 2.11855 18.7532 2.11855H6.24548C5.5527 2.11855 4.99121 2.67018 4.99121 3.35056V3.23787C4.99121 2.55749 5.5527 2.00586 6.24548 2.00586H18.7532C19.446 2.00586 20.0075 2.55749 20.0075 3.23787Z" fill="#E8E9E9"/>
<path d="M6.71313 3.67578V17.0073L12.5005 20.3233L18.2878 17.0073V3.67578H12.5005H6.71313Z" fill="url(#paint1_linear_1574_213096)"/>
<path d="M18.2878 16.9512V17.0357L12.5005 20.3517L6.71313 17.0357V16.9512L12.5005 20.2672L18.2878 16.9512Z" fill="#E8E9E9"/>
<path d="M14.4857 16.2016L12.5141 17.5009L10.5429 16.2016L8.15405 14.627V16.2016L12.5141 19.1347L16.8742 16.2016V14.627L14.4857 16.2016Z" fill="#1E2124"/>
</g>
<path fill-rule="evenodd" clip-rule="evenodd" d="M12.4999 14.371C12.9837 14.371 13.3759 13.9868 13.3759 13.5128C13.3759 13.0366 12.9817 12.6547 12.4999 12.6547C12.0161 12.6547 11.6239 13.0389 11.6239 13.5128C11.6239 13.9868 12.0161 14.371 12.4999 14.371ZM15.128 10.5093C15.6118 10.5093 16.004 10.8935 16.004 11.3675V15.6582C16.004 16.1321 15.6118 16.5163 15.128 16.5163H9.87187C9.38806 16.5163 8.99585 16.1321 8.99585 15.6582V11.3675C8.99585 10.8912 9.39006 10.5093 9.87187 10.5093H10.3099V9.65121C10.3099 8.46636 11.2904 7.50586 12.4999 7.50586C13.0808 7.50586 13.6378 7.73189 14.0485 8.13422C14.4592 8.53655 14.69 9.08223 14.69 9.65121V10.5093H15.128ZM12.4999 8.364C11.7742 8.364 11.1859 8.9403 11.1859 9.65121V10.5093H13.8139V9.65121C13.8139 8.9403 13.2256 8.364 12.4999 8.364Z" fill="#5A5B6A"/>
<defs>
<linearGradient id="paint0_linear_1574_213096" x1="8.14382" y1="0.982971" x2="17.7121" y2="21.5022" gradientUnits="userSpaceOnUse">
<stop stop-color="#B7B6AE"/>
<stop offset="1" stop-color="#8E9091"/>
</linearGradient>
<linearGradient id="paint1_linear_1574_213096" x1="12.5005" y1="1.96706" x2="12.5005" y2="19.1923" gradientUnits="userSpaceOnUse">
<stop offset="0.00062561" stop-color="#A5A6A7"/>
<stop offset="1" stop-color="#626466"/>
</linearGradient>
</defs>
</svg>
